<?xml version="1.0" encoding="utf-8"?>
<!-- Generator: Adobe Illustrator 25.0.0, SVG Export Plug-In . SVG Version: 6.00 Build 0)  -->
<svg version="1.1" id="Layer_1" xmlns="http://www.w3.org/2000/svg" xmlns:xlink="http://www.w3.org/1999/xlink" x="0px" y="0px"
	 viewBox="0 0 90 68.3" style="enable-background:new 0 0 90 68.3;" xml:space="preserve">
<style type="text/css">
	.st0{fill:#F9D10A;}
	.st1{fill:#FFFFFF;stroke:#FFFFFF;stroke-width:3;stroke-miterlimit:10;}
</style>
<g>
	<g>
		<polygon class="st0" points="2.9,24.5 1.8,27.1 1.1,29.1 1.1,31.2 2.7,32.7 4.5,32.3 6,31.3 6.3,29.7 5.9,28.2 5.1,26.4 4.4,25.3 
					"/>
		<polygon class="st1" points="16,51.8 18.6,57.5 21.7,60.3 25.9,63.1 29.8,64.7 35.6,66.3 40.3,66.8 48.2,66 53.4,64.7 58.4,62 
			63,59.3 66,56.9 68.8,54.6 71.5,52.1 		"/>
	</g>
	<path d="M90,41.8c-0.4-1.7-0.9-3.4-1.7-4.9c-0.7-1.8-1.6-3.6-2.5-5.3c-1.9-3.4-4.1-6.6-6.7-9.6c-0.6-0.9-1.5-1.4-2.6-1.6
		c-0.8,0.1-1.6,0.5-2,1.2c-1.6,2.2-2.3,5.4-3.6,7.8c-1.4,2.6-3,5.1-4.9,7.4c-0.3,0.4-0.7,0.8-1.1,1c-0.7,0.2-1.5,0.2-2.1-0.1
		c-2.9-1-5.2-3.3-7.3-5.5c-2.4-2.6-4.8-5.5-8-7.2c-0.2-0.1-0.4-0.2-0.6-0.4c-0.5-0.4-0.8-1-0.9-1.6c0-0.2-0.1-0.5-0.1-0.7
		c-0.7-5.5-2.9-10.7-6.5-15c-3-3.8-7.3-6.3-12-7.1C24-0.2,20.4,0.2,17.1,1.5C13,2.8,9.4,5.1,6.4,8.1c-2.1,2.3-3.4,5.2-3.9,8.3
		c-0.5,3.2,0.3,6.4-1.2,9.3c-0.7,1.1-1.1,2.4-1.2,3.7c-0.2,1.3,0.4,2.6,1.4,3.4c0.6,0.4,1.4,0.6,2.1,0.6c1,0,1.9-0.3,2.6-1
		c1.2-1.1,1.2-3.1,0.6-4.7s-2-2.8-2.5-4.4C3.9,22,3.8,20.6,4,19.3c0.3-2.6,1.3-5,3-7c3.3-4.1,8.5-6.6,13.5-7.5
		c3-0.7,6.1-0.6,9.1,0.2c3.2,1.1,6.1,3.1,8.3,5.7c1.6,1.8,2.9,3.8,3.8,6c0.4,1.1,1.8,5.7,0.3,6.3c-0.3,0.1-0.7,0.1-1,0.1
		c-4.5-0.3-9.2-0.2-13.4,1.6c-3.2,1.5-5.8,4-7.5,7.1c-1.7,3.2-2,6.5-2.6,10c1.7-0.5,3-3.2,3.9-4.7c0.9-1.4,1.6-2.8,2.3-4.3
		c-3.3,9.1-1.5,10.7-1.5,10.7c1.2-1,4.9-8.8,4.9-8.9c-2.4,6-0.7,8.3-0.7,8.3c1.2-0.3,4-6.6,4-6.7c-1.4,5.6-0.2,6.6,0.2,6.8
		c0.1,0,0.3,0,0.4,0.1c0.6-0.2,2.5-4.8,2.8-5.4c-0.6,1.5,0.2,5.7,0.4,5.6c1-1.1,1.8-2.2,2.5-3.4l0.8-1.2l0.6,0.1l0,0l0.1,2.2
		l-0.2,2.5c-0.1-1.5-0.3-3.3-0.3-3.3c-1.6,1.3-2.5,5.2-2.6,5.5l0,0c-0.5-1-1.1-2-1.8-3l0,0c-1.4-1.2-1.1,3.2-1.1,4.6H32
		c-0.3-1.4-0.8-2.7-1.7-3.9c-1.8-0.6-1.9,1-1.9,2.8c0,0.9,0.1,1.7,0.2,2.6c-0.6-1.9-1.6-3.7-2.7-5.3c-1.7,0.1-1.6,4.8-1.6,6.3v0.4
		c-1.1-5.4-2.2-6.3-2.2-6.3c-1.9-0.7-1.9,6.1-1.9,7c0,0,0,0.1,0,0.1c-0.1-2-0.2-7.7-2.7-8.7c-1.8,3.2-2.5,6.8-0.7,10.2
		c3.1,5.8,10.3,9.2,16.3,10.7c6.5,1.6,13.2,1.4,19.6-0.4c1.9-0.6,3.7-1.3,5.5-2.1c4.8-2.5,9.1-5.7,12.8-9.5c2.2-2.2,4.5-4.6,7.6-5
		c1.9-0.2,3.8,0.4,5.6,0.6s4.1-0.1,5.1-1.7C89.9,44.1,90.2,42.9,90,41.8z M3.7,31.6c-4.1,0.2-0.2-6.3-0.2-6.3S7.8,31.4,3.7,31.6z
		 M22.6,33.1c-0.1,0.2-4.2,7.6-4.3,7.6c0,0,0,0-0.1,0c0.6-3.3,1.7-6.4,3.3-9.4c0.3,0.2,0.6,0.4,0.9,0.6l0.1,0.1l0.2,0.1l0.1,0.1l0,0
		C23,32.4,22.7,32.9,22.6,33.1z M22.4,42.5c-0.1-0.2,0.2-6.1,3-8.9l0,0l0.4,0.2l0,0C24.7,36.1,22.4,42.5,22.4,42.5z M26.6,42
		c-0.1-2.4,0.6-4.7,2.1-6.6l0,0l0.4,0.2l0,0C28.3,37.7,27.4,40,26.6,42z M30.9,43c0,0-0.4-4.5,0.9-6.1c0.1,0,0.1,0.1,0.2,0.1
		l0.3,0.1C32.4,37.4,30.9,42.9,30.9,43z M34.2,42.8c-0.2-1.7,0.2-3.3,1.2-4.7l0.6,0.2C35.5,39.9,34.9,41.4,34.2,42.8z M34.7,33.2
		c-1.1,0-2.1-0.9-2.1-2.1c0-1.1,0.9-2.1,2.1-2.1c1.1,0,2.1,0.9,2.1,2.1C36.8,32.3,35.8,33.3,34.7,33.2
		C34.7,33.3,34.7,33.3,34.7,33.2L34.7,33.2z M18.9,51.3l-1.5,0.2c-0.6-2.7-0.5-5.5,0.3-8.2c0.1,0,1.3,7.8,1.3,7.9L18.9,51.3z
		 M21.6,50.8L21.6,50.8c-0.9-2,0-5.5,0-5.6s1.4,5.1,1.4,5.3C22.8,50.5,22.2,50.6,21.6,50.8L21.6,50.8z M25.8,49.8
		c-0.6-1.7-0.7-3.5-0.2-5.2c0.1,0.1,1.7,4.6,1.7,4.8C26.8,49.4,26.3,49.6,25.8,49.8L25.8,49.8z M30.1,48.3c-1-1.1-0.7-3.6-0.6-4.7
		c0.1,0,1.4,3.9,1.6,4.2L30.1,48.3z M33.1,46.8c-0.4-1.3-0.5-2.7-0.3-4.1c0.1,0,1.2,3.2,1.3,3.6C33.7,46.4,33.4,46.6,33.1,46.8
		L33.1,46.8z M37,44.3c-0.4,0.3-1,0.8-1.1,0.8c0.1-1.3,0.6-2.6,1.3-3.7C37.3,42.3,37.2,43.3,37,44.3z M38.5,39.9
		c0-0.3,0-0.8,0.2-0.9l0,0l0.5,0.1c0,0.8-0.2,1.7-0.6,2.4C38.5,40.9,38.5,40.4,38.5,39.9L38.5,39.9z M38.8,42.7
		c0.6-1.1,1-2.3,1.2-3.6c0.2,0.5,0.4,1.1,0.6,1.6C40,41.5,39.4,42.1,38.8,42.7L38.8,42.7z M41,40.1L40.7,39c0.4,0,0.7,0,1.1-0.1
		C41.6,39.3,41.3,39.7,41,40.1z M55.4,49.5c-0.4,0.4-1,0.7-1.5,0.8L49,51.9c-0.8,0.2-1.8,0.5-2.4-0.1c-0.3-0.4-0.5-1-0.4-1.5
		c0.1-1.6,0.5-3.2,1.3-4.6c0-0.1,0.1-0.1,0.1-0.2c0.2-0.3,0.1,0.5,0.1,0.5c-0.1,0.4-0.3,0.7-0.5,1c-0.3,0.9-0.6,1.8-0.7,2.8
		c-0.2,0.6,0,1.2,0.3,1.7c0.6,0.4,1.3,0.4,1.9,0.1c0.2,0,0.4-0.1,0.4-0.4c0-0.1,0-0.1,0-0.2c-0.1-0.4-0.1-2-0.4-2.3
		c0.4,0.7,0.8,1.4,1,2.2c0,0.1,0.1,0.1,0.1,0.2c0.1,0,0.2,0,0.3,0l0.5-0.2c0.1,0,0.2-0.1,0.2-0.2c0-0.1,0-0.1,0-0.2
		c-0.3-1-0.5-2.1-0.6-3.1c0.2,0.3,1.3,3.1,1.4,3.1c0.5,0,0.9-0.1,1.3-0.3c0,0-0.5-2.3-0.5-2.6c0.5,0.6,0.9,1.3,1.1,2
		c0,0.1,0.1,0.2,0.2,0.3c0.1,0,0.3,0,0.4-0.1c0.5-0.2,1-0.5,1.1-1c0.1-0.4,0-0.9-0.3-1.2c-0.6-0.9-1.3-1.7-2.1-2.5L52.8,45
		c0.1-0.1,0.2-0.2,0.3-0.2c1,0.8,1.8,1.9,2.5,3c0.2,0.3,0.2,0.7,0.2,1C55.7,49.1,55.5,49.3,55.4,49.5L55.4,49.5z M75.4,28.9
		c-0.1,0.2-0.3,0.4-0.5,0.5c0,0-0.1,0.1-0.2,0.1c0-0.1,0-0.1,0-0.2c0-0.1,0.1-0.1,0.1-0.2c1.1-2,2.2-4,3.4-6l0.2-0.3
		c0.2,0.1,0.4,0.3,0.6,0.5c0.2,0.1,0.2,0.4,0.1,0.6c0,0,0,0,0,0c-0.1,0.2-0.3,0.4-0.4,0.6c-0.4,0.6-0.9,1.2-1.3,1.8
		C76.7,27.2,76.1,28,75.4,28.9z M81.4,27.7l-0.2,0.2l-2.8,2.6c-0.1,0.1-0.2,0.1-0.3,0.1c0.9-1.7,1.7-3.3,2.6-5l0.1,0.1
		c0.3,0.5,0.5,1,0.8,1.5C81.7,27.3,81.6,27.6,81.4,27.7C81.4,27.7,81.4,27.7,81.4,27.7L81.4,27.7z M82.2,32.1L82.2,32.1l1.4-1.6
		l0.1-0.1l0.7,1.2l-0.2,0.1l-1.7,0.7h-0.1C82.3,32.4,82.2,32.3,82.2,32.1C82.2,32.2,82.2,32.1,82.2,32.1L82.2,32.1z M82.2,36.8
		L82.2,36.8L82.2,36.8C82.2,36.8,82.2,36.8,82.2,36.8c0-0.1,0.1-0.1,0.1-0.2l1-0.6l2.4-1.5c0.1,0,0.2-0.1,0.2-0.1
		c0.2-0.1,0.4,0,0.5,0.1c0,0,0,0.1,0.1,0.1c0.2,0.3,0.4,0.7,0.5,1c0,0.1,0.1,0.2,0.1,0.3c0,0.1-0.1,0.3-0.2,0.3
		c-0.1,0-0.1,0.1-0.2,0.1l-0.8,0.1l-1.2,0.2l-0.9,0.1l-0.4,0L82.2,36.8L82.2,36.8z M88.2,40.5c0,0-0.1,0-0.1,0l-0.7-0.1
		c-0.2,0-0.5,0-0.7,0c-0.4,0-0.9,0-1.3,0.1c-0.4,0-0.9,0.1-1.3,0.1c-0.3,0-0.7,0-1,0l-0.5-0.1l-0.2-0.1c0.1-0.1,0.2-0.1,0.3-0.2
		l3.1-1.3c0.3-0.1,0.7-0.2,1-0.2c0.2,0,0.4,0,0.6,0c0.2,0.1,0.4,0.2,0.5,0.3C88.3,39.5,88.4,40.1,88.2,40.5L88.2,40.5z"/>
</g>
</svg>
