<?xml version="1.0" encoding="utf-8"?>
<!-- Generator: Adobe Illustrator 25.0.0, SVG Export Plug-In . SVG Version: 6.00 Build 0)  -->
<svg version="1.1" id="Layer_1" xmlns="http://www.w3.org/2000/svg" xmlns:xlink="http://www.w3.org/1999/xlink" x="0px" y="0px"
	 viewBox="0 0 669.8 762.3" style="enable-background:new 0 0 669.8 762.3;" xml:space="preserve">
<g>
	<path d="M504.8,455c4.7-1.1,8.2-5.4,8.2-10.4c0-5.9-4.8-10.7-10.7-10.7c-1,0-2,0.1-3,0.4c0-0.1-0.1-0.5-0.1-0.6
		c-115.2,37.5-227.1,37.5-334.3-1.5h-0.3c0,0,0,0.3-0.1,0.4c-0.6-0.1-1.3-0.1-1.9-0.1c-5.9,0-10.7,4.8-10.7,10.8
		c0,4.6,2.9,8.6,7.1,10.1c0,0.1-0.1,0.2-0.1,0.3C269.7,489.1,378.9,495.1,504.8,455z"/>
	<path d="M615.7,513.9c-53.9-5.7-93.1-15.7-102.8-50.6c-121.6,38.9-242.2,38.9-361.4,0c1.7,25.1-30.1,43.9-96.1,54.3
		C171.2,763.8,490.8,770.5,615.7,513.9z"/>
	<path d="M626.5,514.3C512.6,786,151.1,782.1,39.2,515.1h-0.3c-20.4-19-45.2-2.8-37.5,32.4c149.7,283.7,511.2,289.4,662.6-0.7
		C687.8,496.9,630.5,492.9,626.5,514.3z M7.4,541c-1.7-7,2.3-9,8.4-6.4l0.7-0.7c35.2,64.3,70,105.5,129.6,147.7
		c111.2,78.7,253.2,78.1,360.8,8.4c51.3-33.2,98.1-79.4,136.3-148.7c4.7-8.7,10.4-6.4,11.1,0C503.2,826.8,159.5,817,7.4,541z"/>
	<polygon points="331,194.5 331,194.5 336.2,189.3 	"/>
	<path d="M152,348.7V417c125,38.9,245,38.9,362,0v-68c-35-44.2-40.5-144-0.4-195h-0.3C503.4,110,473,71.4,431,47.6V22
		c0-0.2,0.1-0.3,0.1-0.5C431.1,9.7,388.1,0,335,0c-53,0-95.9,10.1-96.1,21.1h0.1v24.2c-44,23.6-76.4,62.9-86.8,108.8
		C198,196.7,194,318.9,152,348.7z M251.3,181.2c-0.8-1.6-1.2-3.3-1.2-5c0-2.9,1.1-5.7,3.3-7.9c3.4-3.4,8.4-4,12.6-2.1h0.1l0,0
		l0.1-0.1c19.1-16.2,43.9-26,70.9-26c26.7,0,51.1,9.5,70.2,25.3c3.7-1,7.9-0.1,10.8,2.9c2.9,2.9,4,7,3,10.7
		c12.9,15.2,21.8,33.9,24.8,54.5l0,0c0-0.1,0.9-0.5,1.4-0.5h16.5c5.3,0,10.1,4.6,10.1,9.9v15c0,5.3-4.8,10.1-10.1,10.1h-16.5
		c-0.6,0-1.3-0.3-1.8-0.4v-0.1c-3.3,20.3-12.1,38.6-24.8,53.6c1.4,4,0.6,8.6-2.6,11.7l0,0c-3.2,3.2-8,4.1-12,2.5
		c-18.9,15.2-42.9,24.4-69,24.4c-26.6,0-51-9.5-70-25.2c-4.3,2.6-10,2-13.7-1.7l0,0c-3.7-3.7-4.3-9.4-1.7-13.7
		c-15.4-18.9-24.6-43-24.6-69.2C227.3,223.9,236.2,200,251.3,181.2z"/>
	<path d="M282.9,174.5c10.5-10.5,27.5-10.5,38,0l14.8,14.8l0,0l0,0l14.8-14.8c3.1-3.1,6.7-5.2,10.6-6.5c0.3-0.1,0.5-0.2,0.8-0.2
		c0.8-0.2,1.6-0.4,2.3-0.6c0.2,0,0.3-0.1,0.5-0.1c0.5-0.1,1.1-0.2,1.6-0.2c2.8-0.3,5.6-0.2,8.4,0.3c0.3,0.1,0.6,0.1,0.9,0.2
		c0.3,0.1,0.6,0.2,0.9,0.2c0.6,0.2,1.3,0.4,1.9,0.6c0.2,0.1,0.4,0.1,0.6,0.2c0.2,0.1,0.4,0.2,0.6,0.2c0.4,0.2,0.8,0.3,1.2,0.5
		c2.8,1.3,5.4,3.1,7.7,5.4l3.7,3.7l5.8-5.8c-16.8-13.2-38-21.1-61-21.1c-23.7,0-45.4,8.4-62.4,22.3l0,0v0.1l0,0l4.6,4.6L282.9,174.5
		z"/>
	<path d="M301.9,326.8c5.2,0,10.2-2,13.8-5.7l14.8-14.8l-50.7-50.7L265,270.4c-3.7,3.7-5.7,8.6-5.7,13.8c0,5.2,2,10.2,5.7,13.8
		l23.1,23.1C291.8,324.8,296.7,326.8,301.9,326.8z"/>
	<path d="M406.5,270.4l-14.8-14.8L341,306.3l14.8,14.8c7.6,7.6,20.1,7.6,27.7,0l23.1-23.1c3.7-3.7,5.7-8.6,5.7-13.8
		C412.2,279,410.2,274.1,406.5,270.4z"/>
	<path d="M388.6,326.3c-5.2,5.2-12.1,7.9-19,7.9s-13.8-2.6-19-7.9l-14.8-14.8L321,326.3c-5.1,5.1-11.8,7.9-19,7.9s-14-2.8-19-7.9
		l-3.5-3.5l-4,4c16.9,13.6,38.4,21.7,61.8,21.7c22.7,0,43.6-7.7,60.3-20.5l-5.3-5.3L388.6,326.3z"/>
	<path d="M263.6,307l-3.7-3.7c-5.1-5.1-7.9-11.8-7.9-19s2.8-14,7.9-19l14.8-14.8l-14.8-14.8c-5.1-5.1-7.9-11.8-7.9-19s2.8-14,7.9-19
		l3.5-3.5l-4.4-4.4c-12.9,16.7-20.5,37.6-20.5,60.3c0,23,7.9,44.2,21.1,61L263.6,307z"/>
	<path d="M259.3,216.6c0,5.3,2,10.2,5.7,13.8l14.8,14.8l50.7-50.7l-14.8-14.8c-3.8-3.8-8.8-5.7-13.8-5.7s-10,1.9-13.8,5.7L265,202.8
		C261.4,206.4,259.3,211.3,259.3,216.6z"/>
	<rect x="299.9" y="214.5" transform="matrix(0.7071 -0.7071 0.7071 0.7071 -78.6804 310.7968)" width="71.8" height="71.8"/>
	<path d="M369.6,173.9c-5,0-10,1.9-13.8,5.7L341,194.4l50.7,50.7l14.8-14.8c3.7-3.7,5.7-8.6,5.7-13.8s-2-10.2-5.7-13.8l-23.1-23.1
		C379.6,175.9,374.6,173.9,369.6,173.9z"/>
	<path d="M408.2,194.1L408.2,194.1C408.2,194.1,408.3,194.1,408.2,194.1c2.2,2.2,4.4,4.2,6.2,6.7c2.2,3,3.8,6.5,4.5,10.2
		c1.9,8.8-0.9,18.3-7.3,24.6l-14.8,14.8l14.8,14.8c5.1,5.1,7.9,11.8,7.9,19s-2.8,14-7.9,19l-3.7,3.7l5.5,5.5
		c13.9-17,22.3-38.8,22.3-62.5c0-10.8-1.8-21.6-5.3-31.9c-0.5-1.5-1-2.9-1.6-4.4c-3.2-8.1-7.4-15.7-12.6-22.7c-0.7-1-1.5-2-2.3-2.9
		C414.2,188.3,408.8,193.5,408.2,194.1z"/>
	<path d="M143.1,342.4c18.5,0,33.5-39.3,33.5-87.8s-15-87.8-33.5-87.8s-33.5,39.3-33.5,87.8S124.6,342.4,143.1,342.4z M139,192.5
		c2,1.6,3.7,4.4,5.2,8.2l0,0l0,0c1.9,4.6,3.6,10.8,4.9,18l0,0l0,0c0.4,2.4,0.7,4.9,1.1,7.4v0.1c-1.8-0.6-6.4-2.4-11.3-4.3h-0.1
		v-29.4H139z M139,230L139,230l12.3,4.5l0.1,0.1c0,2.2,0.3,4.5,0.4,6.8c0.2,3.4,0.2,7,0.3,10.6c0,0.9-0.1,1.7-0.1,2.6l0,0v4.8l0,0
		l0,0h0.1c-1.9-0.7-7.2-2.8-13.1-5.2l0,0V230z M139,263L139,263l12.8,5.4c-0.4,6.8-1.1,13.1-2,18.9c0,0,0,0,0,0.1
		c-0.3,1.9-0.7,3.7-1.1,5.5l-9.7-4.1h-0.1V263H139z M139,316.7v-18.6h0.1l7.6,3.4v0.1l0,0c-0.5,1.4-0.9,2.8-1.3,4.2
		c0.1-0.2,0.2-0.5,0.3-0.7C144.2,309.3,142.3,313.9,139,316.7c-0.2,0.3-0.5,0.5-0.8,0.7C138.4,317.2,139,317,139,316.7z
		 M122.1,215.2L122.1,215.2L122.1,215.2c0.1,0,0.1,0,0.1,0S122.2,215.3,122.1,215.2c2.1-9.6,4.9-16.9,7.9-20.9v4.9v10.7v8.6
		c0,0,0,0,0-0.1C126.3,217,123.4,215.8,122.1,215.2C122.1,215.3,122.1,215.3,122.1,215.2L122.1,215.2z M119,245.8L119,245.8
		c0-8.1,0.8-15.7,1.9-22.4l9,3.4v0.1v23.7c0,0,0,0-0.1-0.1C124.9,248.3,120.5,246.5,119,245.8C118.9,245.8,119,245.8,119,245.8z
		 M120,280.4l0.1-0.3l0,0l-0.7-0.1L120,280.4C120.1,280.4,120.1,280.5,120,280.4C120.1,280.5,120.1,280.5,120,280.4
		C120.1,280.5,120.1,280.5,120,280.4c0-0.1,0-0.2,0-0.3c-0.1-0.5-0.1-1-0.2-1.4c0-0.1,0-0.2,0-0.3c-0.1-0.5-0.1-0.9-0.2-1.4
		c0,0,0,0,0-0.1c0-0.2,0-0.5-0.1-0.7c0,0.3,0.1,0.5,0.1,0.8c0-0.2,0-0.5-0.1-0.7c-0.1-1-0.2-2.1-0.3-3.1c-0.2-2.5-0.4-5.2-0.5-7.8
		c0.1,2.7,0.3,5.3,0.5,7.8c0-0.3,0-0.5-0.1-0.8c-0.2-2.3-0.2-4.6-0.3-7c0-0.9,0-1.9,0-2.9l0,0c0-1,0-1.9,0-2.9c0-1.6,0-3.2,0-4.8
		v-0.2l0,0h-0.2l11.3,4.8l-0.1,0.1v25.7v-0.1l-3-1.3l-7-3l0,0C120,280.6,120,280.4,120,280.4z M121.7,290.4
		C121.7,290.4,121.7,290.3,121.7,290.4C121.6,290.3,121.6,290.3,121.7,290.4C121.6,290.3,121.6,290.3,121.7,290.4
		C121.6,290.3,121.6,290.3,121.7,290.4L121.7,290.4L121.7,290.4C121.7,290.3,121.7,290.4,121.7,290.4z M130,314.8
		c-2.6-3.2-4.1-7.6-5.4-11.5c-0.7-2.1-1.3-4.1-1.8-6.3c-0.4-2-1.3-4.5-1.1-6.5c2.8,0.7,5.6,2.4,8.2,3.6v0.1
		C130,294.2,130,314.9,130,314.8c0,0.3,0.4,0.6,0.7,0.9C130.4,315.4,130.3,315.1,130,314.8z"/>
	<path d="M145.2,306.1c-0.3,0.8-0.6,1.6-1,2.4C144.7,307.7,145,306.9,145.2,306.1z"/>
	<path d="M145.3,306.1C145.2,306.1,145.2,306.1,145.3,306.1C145.2,306.1,145.2,306.1,145.3,306.1z"/>
	<path d="M145.3,305.9c0,0.1,0,0.1-0.1,0.2C145.3,306,145.3,305.9,145.3,305.9z"/>
	<rect x="127.8" y="311.2" width="0" height="0"/>
	<path d="M127.4,310.4C127.4,310.4,127.4,310.5,127.4,310.4C127.4,310.5,127.4,310.5,127.4,310.4
		C127.4,310.5,127.4,310.5,127.4,310.4L127.4,310.4z"/>
	<path d="M126.8,309.1c-2-4.9-3.6-9.9-4.5-15C123.2,299.1,124.8,304.3,126.8,309.1z"/>
	<path d="M492.1,252.9c0,48.5,15,87.8,33.5,87.8c18.5,0,33.5-39.3,33.5-87.8s-15-87.8-33.5-87.8
		C507.1,165.2,492.1,204.5,492.1,252.9z M539,192.9L539,192.9c0,0.1,0.1,0.2,0.1,0.3c3,4.1,5.6,11.4,7.5,20.7
		c-1.2,0.8-4.6,1.7-7.6,3.1V192.9z M539,225.3l9.1-3.4l0,0c1,6.8,1.6,14.3,2,22.3c-1.3,0.8-5.8,2.5-11.1,4.7v0.1V225.3z M539,257.8
		L539,257.8l11.1-4.9c0,9.4-0.6,18.2-1.5,26.2l0,0h0.4v0.3l-9.6,4l-0.4,0.1V257.8z M539,292.7l0.1-0.1l8-3.5l0,0
		c-2,11-4.7,19.1-8,23.7c-0.1,0.1-0.1,0.1-0.1,0.2V292.7z M530,315.3c-3-2.3-5.7-7.7-7.9-15.2l0,0l7.9-3.5V315.3z M530,287.3
		l-10,4.2l0,0l0,0l0,0l0,0c-2-7.1-2.3-15.4-3.1-24.4l0,0l13.1-5.6V287.3z M530,190.6v29.9c-5,2-9.7,3.7-11.6,4.3
		C520.3,207.5,525,194.6,530,190.6z M517.2,233.3l12.7-4.7v24.1c-6,2.5-11.2,4.7-13.1,5.4c-0.1,0,0.1,0,0.1,0.1v-0.1
		c0-1.7-0.3-3.4-0.3-5.1C516.7,246.1,516.9,239.5,517.2,233.3z"/>
	<path d="M259,179.8c1.7,0.8,3.8,0.4,5.1-0.9c1.3-1.3,1.6-3.2,1.1-4.9c-0.6-1.7-2.3-2.9-4.1-3c-0.1,0-0.1,0-0.2,0h-0.1h-0.1
		c-2.4,0-4.4,2.2-4.5,4.5C256.2,177.2,257.3,179,259,179.8z"/>
	<circle cx="411.2" cy="175.6" r="4.7"/>
	<path d="M411.2,320.8c-2.6,0-4.7,2.1-4.7,4.7s2.1,4.7,4.7,4.7c0.4,0,0.9-0.1,1.3-0.2c1.5-0.4,2.7-1.6,3.2-3.1
		c0.1-0.4,0.2-0.9,0.2-1.4C415.8,322.9,413.7,320.8,411.2,320.8z"/>
	<path d="M260.9,320.8c-2.2,0-4.1,1.5-4.5,3.6c-0.1,0.3-0.1,0.7-0.1,1c0,2.6,2.1,4.7,4.7,4.7c0.3,0,0.7,0,1-0.1
		c2.1-0.5,3.7-2.3,3.7-4.6C265.6,322.9,263.5,320.8,260.9,320.8z"/>
	<circle cx="458.4" cy="250.2" r="7"/>
</g>
</svg>
