<?xml version="1.0" encoding="utf-8"?>
<!-- Generator: Adobe Illustrator 25.0.0, SVG Export Plug-In . SVG Version: 6.00 Build 0)  -->
<svg version="1.1" xmlns="http://www.w3.org/2000/svg" xmlns:xlink="http://www.w3.org/1999/xlink" x="0px" y="0px"
	 viewBox="0 0 65 70" style="enable-background:new 0 0 65 70;" xml:space="preserve">
<g id="Layer_2">
</g>
<g id="Layer_1">
	<path d="M60.5,29c0,2.9-0.5,5.3-1.2,5.9c0.4,1.5,1,2.6,1.7,2.6c1.5,0,2.5-5.2,2.5-9l0,0c0-3.8-1-9-2.5-9c-0.8,0-1.4,1.5-1.9,3.5
		C59.9,23.2,60.5,25.8,60.5,29z M4,37.5c0.7,0,1.2-1.1,1.7-2.6c-0.7-0.6-1.2-3-1.2-5.9c0-3.2,0.6-5.8,1.4-6c-0.4-2-1.1-3.5-1.9-3.5
		c-1.5,0-2.5,5.2-2.5,9l0,0C1.5,32.2,2.5,37.5,4,37.5z M7.4,21.1c0.7,2,1.1,4.5,1.1,7.4c0,4.3-0.8,7.9-2.4,9.8
		c-0.2,0.2-0.4,0.5-0.7,0.7h3.7c0.8,3.7,1,7.6,0.2,11.3c3.4,2.4,12.5,4.7,23.1,4.7s19.7-2.3,23.1-4.7c-0.8-3.7-0.5-7.6,0.2-11.3h3.7
		c-0.3-0.2-0.5-0.4-0.7-0.6c-1.5-1.9-2.3-5.6-2.4-9.9c0-2.9,0.4-5.4,1.1-7.4c0.3-1,1-2.5,2-3.1h-2.4C53.8,7.6,44.1,0,32.5,0
		S11.2,7.6,7.8,18H5.4C6.4,18.6,7.1,20.1,7.4,21.1z M32.5,17.8c8.4,0,15.2,6.8,15.2,15.2h0c0,8.4-6.8,15.2-15.2,15.2
		c-8.4,0-15.2-6.8-15.2-15.2C17.2,24.6,24.1,17.8,32.5,17.8z M57.8,53c-5,4.2-14.5,7.3-25.3,7.3c-10.8,0-20.3-3.1-25.3-7.3L0,58.2
		C7.8,55.1,16.4,70,32.5,70S57.2,55.1,65,58.2L57.8,53z M32.5,46.8c7.6,0,13.8-6.2,13.8-13.8c0-7.6-6.2-13.8-13.8-13.8
		c-7.6,0-13.8,6.2-13.8,13.8C18.7,40.6,24.9,46.8,32.5,46.8z M26.9,40.4l-1.7-1.7c-0.4-0.4-0.6-1-0.6-1.6c0-0.6,0.2-1.2,0.7-1.6
		l1.1-1.1l4.9,4.9L30,40.3c-0.5,0.4-1,0.7-1.6,0.7C27.8,41,27.3,40.8,26.9,40.4z M27.6,33l4.9-4.9l4.9,4.9l-4.9,4.9L27.6,33z
		 M32.5,43.5c-1.2,0-2.3-0.2-3.4-0.6c0.8-0.1,1.7-0.5,2.3-1.2l1.1-1.1l1.1,1.1c0.7,0.7,1.5,1,2.3,1.2C34.8,43.3,33.7,43.5,32.5,43.5
		z M39.9,38.6l-1.7,1.7c-0.4,0.4-1,0.6-1.6,0.6c-0.6,0-1.2-0.2-1.6-0.7l-1.1-1.1l4.9-4.9l1.1,1.1c0.5,0.5,0.7,1,0.7,1.6
		C40.5,37.7,40.3,38.2,39.9,38.6z M42.4,29.6c0.4,1.1,0.6,2.2,0.6,3.4s-0.2,2.3-0.6,3.4c-0.1-0.9-0.5-1.7-1.2-2.3L40.2,33l1.1-1.1
		C41.9,31.3,42.3,30.5,42.4,29.6z M38.1,25.6l1.7,1.7c0.4,0.4,0.6,1,0.6,1.6c0,0.6-0.2,1.2-0.7,1.6l-1.1,1.1l-4.9-4.9l1.1-1.1
		c0.5-0.5,1-0.7,1.6-0.7C37.2,25,37.7,25.2,38.1,25.6z M32.5,22.5c1.2,0,2.3,0.2,3.4,0.6c-0.8,0.1-1.7,0.5-2.3,1.2l0,0l-1.1,1.1
		l-1.1-1.1c-0.7-0.7-1.5-1-2.3-1.2C30.2,22.7,31.3,22.5,32.5,22.5z M25.1,27.4l1.7-1.7c0.4-0.4,1-0.6,1.6-0.6c0.6,0,1.2,0.2,1.6,0.7
		l1.1,1.1l-4.9,4.9l-1.1-1.1c-0.5-0.5-0.7-1-0.7-1.6C24.5,28.3,24.7,27.8,25.1,27.4z M22,33c0-1.2,0.2-2.3,0.6-3.4
		c0.1,0.8,0.5,1.7,1.2,2.3l1.1,1.1l-1.1,1.1c-0.7,0.7-1,1.5-1.2,2.3C22.2,35.3,22,34.2,22,33z"/>
</g>
</svg>
