<svg id="Layer_1" data-name="Layer 1" xmlns="http://www.w3.org/2000/svg" viewBox="0 0 91.2 87.6"><defs><style>.cls-1{fill:#f7941d;}.cls-2{fill:#67a9b8;}.cls-3{fill:#26bbee;}</style></defs><path class="cls-1" d="M73.4,46.2c0-4.8.3-10.3,1.5-12.6a.6.6,0,0,0-.4-.1H72.6c-.7,0-1.2.7-1.3,1.6a96.82,96.82,0,0,0-.8,11.1c0,5.1.7,9.1.8,11.2.1.9.6,1.6,1.3,1.6h1.9a.6.6,0,0,0,.4-.1C73.7,56.5,73.4,51,73.4,46.2Z"/><path class="cls-1" d="M73.5,75.9l-7.6,5.9a79,79,0,0,1-8.5,5.8H91.2C88.5,80.4,79.4,75,75,72.7A4.41,4.41,0,0,1,73.5,75.9Z"/><polygon class="cls-2" points="51.7 48 44.8 41.1 38 48 44.8 54.9 51.7 48"/><path class="cls-2" d="M36.5,46.6l6.9-6.9-1-1a4.83,4.83,0,0,0-6.8,0,4.89,4.89,0,0,0,0,6.9Z"/><path class="cls-2" d="M42.4,57.4l1-1-6.9-6.9-1,1a4.89,4.89,0,0,0,0,6.9,4.76,4.76,0,0,0,3.4,1.4A5,5,0,0,0,42.4,57.4Z"/><path class="cls-2" d="M50.7,58.8a4.76,4.76,0,0,0,3.4-1.4,4.89,4.89,0,0,0,0-6.9L53,49.4l-6.9,6.9,1,1A5.08,5.08,0,0,0,50.7,58.8Z"/><path class="cls-2" d="M47.2,38.7l-1,1,6.9,6.9,1.1-1.1a4.89,4.89,0,0,0,0-6.9,4.76,4.76,0,0,0-3.4-1.4A5.62,5.62,0,0,0,47.2,38.7Z"/><path class="cls-2" d="M50.7,60.8a7,7,0,0,1-4.9-2l-1-1-1,1a6.8,6.8,0,0,1-4.9,2,4.87,4.87,0,0,1-1.2-.1,14.14,14.14,0,0,0,7.1,1.8,15.25,15.25,0,0,0,7.1-1.8A4.87,4.87,0,0,1,50.7,60.8Z"/><path class="cls-2" d="M34.1,49.1,35.2,48l-1.1-1.1a6.91,6.91,0,0,1-1.9-6.1,14.22,14.22,0,0,0,0,14.2A6.51,6.51,0,0,1,34.1,49.1Z"/><path class="cls-2" d="M59.3,48a14.21,14.21,0,0,0-1.9-7.1A6.8,6.8,0,0,1,55.5,47l-1,1,1.1,1.1a6.91,6.91,0,0,1,1.9,6.1A15.66,15.66,0,0,0,59.3,48Z"/><path class="cls-2" d="M38.9,35.3a7,7,0,0,1,4.9,2l1,1,1-1a6.8,6.8,0,0,1,4.9-2,4.87,4.87,0,0,1,1.2.1,14.14,14.14,0,0,0-7.1-1.8,15.25,15.25,0,0,0-7.1,1.8A4.87,4.87,0,0,1,38.9,35.3Z"/><ellipse class="cls-2" cx="44.8" cy="16" rx="11.2" ry="1.9"/><path class="cls-1" d="M44.8,19.5c-6.4,0-9.6-.7-11.2-1.4v1.5A1.42,1.42,0,0,0,35,20.9a73.84,73.84,0,0,0,9.7.8c4.4,0,8-.7,9.8-.8a1.42,1.42,0,0,0,1.4-1.3V18C54.4,18.8,51.2,19.5,44.8,19.5Z"/><path class="cls-2" d="M75.4,46.2c0,5.3.4,8.9.9,10.6a52,52,0,0,0,.9-10.6c0-5.3-.4-8.9-.9-10.6A50.43,50.43,0,0,0,75.4,46.2Z"/><path class="cls-2" d="M11.6,46.2c0,5.3.4,8.9.9,10.6a52,52,0,0,0,.9-10.6c0-5.3-.4-8.9-.9-10.6C12,37.3,11.6,40.9,11.6,46.2Z"/><path class="cls-3" d="M74.5,7.3a11.94,11.94,0,0,1-8.4-3.2C64.4,2.7,62.9,1.6,60,1.6s-4.4,1.2-6.1,2.5a12.14,12.14,0,0,1-8.4,3.2,12.14,12.14,0,0,1-8.4-3.2C35.4,2.7,33.9,1.6,31,1.6s-4.4,1.2-6.1,2.5a11.94,11.94,0,0,1-8.4,3.2A11.94,11.94,0,0,1,8.1,4.1C6.4,2.7,4.9,1.6,2,1.6,1.2,1.6.6,1.2.6.8S1.2,0,2,0a11.94,11.94,0,0,1,8.4,3.2c1.7,1.4,3.2,2.5,6.1,2.5s4.4-1.2,6.1-2.5A11.94,11.94,0,0,1,31,0a11.94,11.94,0,0,1,8.4,3.2c1.7,1.4,3.2,2.5,6.1,2.5s4.4-1.2,6.1-2.5A12.14,12.14,0,0,1,60,0a11.94,11.94,0,0,1,8.4,3.2c1.7,1.4,3.2,2.5,6.1,2.5s4.4-1.2,6.1-2.5A12.14,12.14,0,0,1,89,0c.8,0,1.4.4,1.4.8s-.6.8-1.4.8c-2.9,0-4.4,1.2-6.1,2.5A11.94,11.94,0,0,1,74.5,7.3Z"/><path class="cls-3" d="M14.2,19.8a3.7,3.7,0,1,0,3.7,3.7A3.76,3.76,0,0,0,14.2,19.8Z"/><circle class="cls-3" cx="23.6" cy="30.4" r="2.5"/><path class="cls-3" d="M21.3,8.9a4.4,4.4,0,1,0,4.4,4.4A4.44,4.44,0,0,0,21.3,8.9Z"/><path class="cls-1" d="M23.1,81.3h0l-6.8-5.4a4.36,4.36,0,0,1-1.5-2.5C10.1,75.9,2.3,81,0,87.6H32.3A64.52,64.52,0,0,1,23.1,81.3Z"/><path class="cls-1" d="M70.8,71.2l-6.6-.8a30.86,30.86,0,0,1-38.9,0l-6.5.8a1.3,1.3,0,0,0-1.1.9,1.42,1.42,0,0,0,.4,1.5l6.7,5.3c4.8,3.7,10.6,8.2,16.3,8.2h7.3c5.4,0,11.1-4.3,15.6-7.7l.4-.3,7.1-5.5a1.45,1.45,0,0,0,.4-1.4A1.25,1.25,0,0,0,70.8,71.2Z"/><path class="cls-1" d="M17.2,35.1c-.1-.9-.6-1.6-1.3-1.6H13.8c1.2,2.3,1.5,7.8,1.5,12.6S15,56.6,13.7,58.8h2.2c.7,0,1.2-.7,1.3-1.6.1-2.1.8-6.1.8-11.2A91.86,91.86,0,0,0,17.2,35.1Z"/><path class="cls-1" d="M69.4,57.5c0-.5-.8-7.6-.8-11.3A97.2,97.2,0,0,1,69.4,35a4.19,4.19,0,0,1,.4-1.5A28.06,28.06,0,0,0,57.3,21.2a3.31,3.31,0,0,1-2.6,1.6,17.63,17.63,0,0,0-1.9.2,55,55,0,0,1-8.1.6,66.25,66.25,0,0,1-8.6-.6c-.5-.1-1-.1-1.3-.2a3.31,3.31,0,0,1-2.6-1.6,27.05,27.05,0,0,0-7.7,5.7,3.75,3.75,0,0,1,2.7,3.6,3.8,3.8,0,0,1-3.8,3.8,4,4,0,0,1-3.2-1.7L19,35s.8,6.7.8,11.3a71.73,71.73,0,0,1-.6,9.2,20.62,20.62,0,0,0-.2,2.1v.1a28.1,28.1,0,0,0,50.7,1.4A11,11,0,0,1,69.4,57.5Zm-24.6,7A16.5,16.5,0,1,1,61.3,48,16.52,16.52,0,0,1,44.8,64.5Z"/></svg>