<?xml version="1.0" encoding="utf-8"?>
<!-- Generator: Adobe Illustrator 25.0.0, SVG Export Plug-In . SVG Version: 6.00 Build 0)  -->
<svg version="1.1" id="Layer_1" xmlns="http://www.w3.org/2000/svg" xmlns:xlink="http://www.w3.org/1999/xlink" x="0px" y="0px"
	 viewBox="0 0 87.2 95.3" style="enable-background:new 0 0 87.2 95.3;" xml:space="preserve">
<style type="text/css">
	.st0{fill:#FFFFFF;}
</style>
<g>
	<path class="st0" d="M0,95h2.2c2-4.2,6.8-10.9,7.9-12c0.2-0.2,0.3-0.5,0.3-0.8c0.4,0.1,0.8,0.2,1.3,0.4c4.3,1.5,10.1,8,13.5,12.4
		h1.3C23,90.6,16.8,83.2,12,81.6c-1.3-0.5-2.4-0.7-3.3-0.8c0.5-0.2,1.1-0.6,1.7-0.9l0,0c0,0.1,1.2,0.9,2.9,0.9c0.6,0,1.3-0.1,2-0.4
		c0.7-0.2,1.7-0.7,1.6-1.5s-1.2-1.2-2.1-1.4c0.6-0.3,1.2-0.6,1.7-0.9c2.3,0.4,5.4,2.9,11.2,9.1c1,1.1,2,2.1,2.9,3.1
		c2.3,2.4,4.2,4.5,5.9,6.2H38c-2-1.8-4.1-4.1-6.6-6.8c-0.9-0.9-1.9-2-2.9-3.1c-5.1-5.4-8.1-8.1-10.5-9c0.3-0.2,0.7-0.5,1.2-0.8
		c1.6-1.1,2.5-2.2,2.9-2.9c0,0.1,0.1,0.1,0.1,0.1c0.3,0.1,0.7,0.4,1.1,0.6c-0.4,1-0.9,2-0.9,2c-0.1,0.3,0,0.6,0.3,0.7
		c0.1,0,0.1,0,0.2,0c0.2,0,0.4-0.1,0.5-0.3c0-0.1,0.4-1,0.8-2c0.8,0.5,1.9,1,3.1,1.5l-0.7,1.3c-0.1,0.3,0,0.6,0.2,0.7
		c0,0.1,0.1,0.1,0.2,0.1s0.3-0.1,0.4-0.3l0.8-1.4c3.5,1.4,8.5,2.6,15.4,2.8c0.4,0,0.8,0,1.2,0c7.4,0,13.3-1.5,17.2-3l0,0
		c-0.1,0.2,0,0.5,0.3,0.6c0.8,0.3,1.4,1.4,1.6,1.8c0.1,0.2,0.3,0.3,0.5,0.3c0.1,0,0.1,0,0.2,0c0.2-0.2,0.3-0.4,0.2-0.7
		c0-0.2-0.8-1.8-2.1-2.3c0.4-0.2,0.8-0.3,1.2-0.5c1,1,2.2,2.5,2.6,3.3c0,0.2,0.2,0.3,0.4,0.3c0,0,0.1-0.1,0.2-0.1
		c0.2-0.2,0.3-0.5,0.2-0.7c-0.4-0.8-1.5-2.1-2.5-3.2c0.8-0.3,1.3-0.6,1.7-0.8l0.8,1.1c0,0,4,3.3,2.2,12.8c-0.6,3.5-1.6,6.1-3,8.1
		h1.3c1.2-2,2.2-4.6,2.8-7.9c1.5-8.1-0.7-11.6-1.8-12.8l0,0c0.1,0,0.1-0.1,0.2-0.2c0.7,0.6,1.8,1.7,2.9,2.9l0,0
		c-0.3,2.8,0.5,4.4,1.4,5c0.2,0.2,0.5,0.3,0.8,0.3c0.2,0,0.4-0.1,0.6-0.2c0.4-0.2,0.6-0.6,0.8-1.1c0,0.1,0.1,0.1,0.1,0.2
		c0.1,0.2,0.3,1.2,0.4,2.5c0,0.1,0,0.2,0,0.3c0.2,2.4,0.1,6.1-1.5,10.1l-0.2,0.4c-0.1,0.2-0.1,0.3-0.2,0.5h1.1v-0.1l0.2-0.4
		c0-0.1,0.1-0.2,0.1-0.3c0,0.3-0.1,0.5-0.1,0.8h1c0.6-3.6,1-7.1,1-9.5c1.7,1.5,4.3,3.9,5.4,5.6c0.9,1.3,1.6,2.6,2.2,3.8h2.2
		c-0.7-1.6-1.6-3.3-2.8-5c-1.4-2.2-4.9-5.3-6.8-7c-0.2-0.1-1.1-2.1-1.1-2.2l0,0v-0.1v-0.1l0,0c-0.6-0.7-6.1-6.9-7.6-7.8l0,0L65,67.5
		c1.5-1.3,6-5.7,8.9-14.5c0.2,0.1,0.3,0.1,0.5,0.1c0.6,0,1.3-0.2,2.1-0.7c3.5-2,3.9-13.8,3.9-13.9c0-3.9-1.3-5.7-2.4-6.5
		c-0.6-0.4-1.2-0.6-1.8-0.7c-1.5-10.2-7.9-18.6-17.8-23.5V6.6c0-0.1,0-0.1,0-0.2c0.1-0.6,0.1-1.4-0.2-2.1C57.1,1.7,53,0.2,45.8,0
		c-6.2-0.3-10.9,0.8-12.6,2.8c-0.4,0.5-0.6,1.2-0.6,1.8c-0.1,0.2-0.1,0.3-0.1,0.5v0.3C23.5,8,17.9,14.6,16,24.9l-6,0.4
		c-0.4,0.1-1,0.7-1.1,0.8c-2.3,2-3.4,7.1-3.1,14.5c0.2,5.3,1.8,9.8,4.3,12c0.9,0.8,1.8,1.2,2.6,1.2c0.1,0,0.1,0,0.2,0H13
		c0.1,0,0.1,0,0.2,0l0,0h3.6c1.7,8.4,4.1,12,4.2,12.1l0,0c-0.4,2.1-0.1,4.1,0.1,4.9c-0.2,0.1-0.3,0.2-0.4,0.4c0,0-0.4,1.3-1.8,2.7
		c-1.3,1.2-3.5,2.5-3.5,2.5c-2.6,1.3-8.7,4.6-9.1,4.9c-0.1,0.1-0.2,0.2-0.2,0.4c-0.1,0-0.1,0.1-0.2,0.1c-0.9,0.8-0.7,2-0.7,2v2.5
		C3.2,89.1,1,92.7,0,95z M72.7,78.3c0.7,0.7,1.3,1.4,1.9,2c0,0.7-0.2,1.1-0.4,1.2c-0.1,0-0.2,0-0.4-0.1
		C73.4,81.1,72.8,80.1,72.7,78.3z M16.6,39.7c-0.4,6.9-1.8,10.9-4.3,11.9l0,0c-0.3-0.1-0.6-0.2-1-0.6c-1.6-1.5-3.5-5-3.7-10.6
		C7.2,30.6,9.3,28.1,10,27.5c0.4-0.3,0.8-0.5,1.7-0.1C14.2,28.6,16.9,34.3,16.6,39.7z M21.9,40c0.2,8.4-3.6,11.1-4.5,11.6l0,0l0,0
		h-1.9c1.8-2.2,2.8-6.1,3.1-11.9c0.3-5.2-1.8-10.2-4.3-12.8l1.8-0.1C17.2,27.7,21.6,31.5,21.9,40z M56.2,6.5
		c-0.9,1-3.8,3.4-11.3,3.3c-7.1-0.1-9.8-3.7-10.5-4.9c0-0.1,0-0.2,0-0.4c0-0.1,0-0.2,0.2-0.5c0.8-0.9,4-2.4,11-2.1
		C54.3,2.3,56,4.2,56.3,5C56.5,5.5,56.4,6.1,56.2,6.5z M44.8,11.8c6.2,0.1,9.6-1.4,11.5-2.8v0.7c-0.1,0.3-1.2,3.7-10.6,3.7
		S34.6,9.3,34.4,8.7V8.1C36.2,9.8,39.5,11.7,44.8,11.8z M74.5,51c1-3.8,1.8-8.3,2-13.6c0-1.3,0-2.7-0.1-4c0.1,0,0.3,0.1,0.4,0.2
		c0.6,0.4,1.6,1.6,1.5,4.8c-0.1,4.2-1.3,11.3-2.9,12.2C74.9,50.9,74.6,51,74.5,51z M63.4,66.2c-0.1,0.1-0.1,0.2-0.2,0.3
		c0,0-0.1,0.1-0.2,0.1c-0.1,0.1-8.8,4.6-20,3.8c-7.8-0.5-17.8-4.3-20.4-6c-0.5-0.7-2.4-4.1-3.8-11.2c1.6-1,5.4-4.4,5.2-13.2
		c-0.1-5.7-2-9.5-3.8-11.9c0.1-0.6,0.2-3.4,0.7-4.6c0.1-0.3,0-0.6-0.3-0.7s-0.6,0-0.7,0.3c-0.4,0.9-0.6,2.6-0.7,3.8
		c-0.5-0.6-1-1.1-1.4-1.4c1.7-9.6,6.6-15.7,14.6-18.2l0.1,1.5c0,0.1,0,0.1,0,0.2c0,0.3,1.6,6.4,13.3,6.4c11,0,12.4-4.6,12.6-5.4
		c9.2,4.9,15,13.2,16,23c0.1,1.5,0.2,2.9,0.1,4.4c-0.2,5.3-1,9.8-2.1,13.6c0-0.1,0-0.1,0,0C69.3,61.4,64,65.7,63.4,66.2z M21.6,68.5
		c0.2,0.2,0.5,0.4,1.3,0.7l0.3,0.1c0.1,0,0.1,0,0.2,0c0.2,0,0.4-0.1,0.5-0.3c0.1-0.3,0-0.6-0.3-0.7l-0.3-0.1
		c-1.1-0.5-1.1-0.5-1.4-0.8c-0.1-0.1-0.2-0.3-0.3-0.4l0,0c0-0.2,0.1-0.5,0.1-0.7c3.6,2,13.3,5.5,20.9,6.1c1,0.1,2,0.1,3,0.1
		c8.8,0,15.5-2.9,17.5-3.8c0.8,1,1.6,2.2,2.1,3c-2.6,1.3-10.6,4.9-21.6,4.6c-12-0.3-18.1-4-20.4-5.4c-0.3-0.2-0.6-0.4-0.8-0.5
		c-0.1-0.1-0.3-0.1-0.5-0.1C21.9,69.9,21.8,69.2,21.6,68.5z M11.4,79.6c0.7-0.4,1.5-0.8,2.2-1.2c0.1,0.1,0.2,0.2,0.4,0.2
		c1.2,0.1,1.9,0.4,2,0.6c-0.1,0-0.3,0.2-1,0.5C13.3,80.3,12,79.9,11.4,79.6z M6.2,83.7c0-0.1-0.1-0.8,0.4-1.2
		c0.3-0.2,0.8-0.4,1.8-0.4c-0.5,0.6-1.3,1.6-2.2,2.8V83.7z"/>
	<path class="st0" d="M21.9,86.6c0.5,0,0.9-0.1,1.3-0.4c1.1-0.8,1.1-2.5,0.1-3.8c-0.5-0.6-1.1-1-1.8-1.2c-0.7-0.1-1.4,0-1.9,0.4
		c-1.1,0.8-1.1,2.5-0.1,3.8c0.5,0.6,1.1,1,1.8,1.2C21.5,86.7,21.7,86.7,21.9,86.6z M22.6,85.5c-0.3,0.2-0.7,0.3-1.1,0.2
		c-0.4-0.1-0.9-0.4-1.2-0.8c-0.7-0.9-0.7-1.9-0.1-2.4c0.2-0.1,0.4-0.2,0.7-0.2c0.1,0,0.3,0,0.4,0c0.4,0.1,0.9,0.4,1.2,0.8
		C23.2,83.9,23.2,85,22.6,85.5z"/>
	<path class="st0" d="M28,95.3h1.2l-0.1-0.1c-0.7-0.8-0.6-1.9,0-2.4c0.2-0.2,0.5-0.3,0.7-0.3c0.1,0,0.1,0,0.2,0
		c0.5,0.1,1,0.4,1.3,0.8c0.5,0.6,0.6,1.4,0.3,1.9h1c0.2-0.8,0-1.7-0.6-2.5c-0.5-0.7-1.3-1.1-2-1.2c-0.6-0.1-1.2,0-1.7,0.4
		C27.4,92.7,27.2,94,28,95.3z"/>
	<path class="st0" d="M69.3,94.9c0,0.1-0.1,0.2-0.1,0.3h1.1c0.2-0.4,0.5-0.6,0.8-0.8c0.1,0,0.3-0.1,0.5-0.1c0.1,0,0.2,0,0.3,0.1
		c0.3,0.1,0.4,0.5,0.4,0.7v0.1h1c0-0.1,0-0.1,0-0.2c-0.1-0.7-0.4-1.2-0.9-1.5s-1.1-0.3-1.7,0C70.1,93.8,69.6,94.3,69.3,94.9z"/>
	<path class="st0" d="M73.3,89.8c1,0,1.9-1.2,1.9-2.7s-0.8-2.7-1.9-2.7c-1,0-1.9,1.2-1.9,2.7S72.3,89.8,73.3,89.8z M72.4,87.1
		c0-1,0.5-1.7,0.9-1.7s0.9,0.7,0.9,1.7s-0.5,1.7-0.9,1.7C72.9,88.8,72.4,88.1,72.4,87.1z"/>
	<path class="st0" d="M45.6,3.2c-2.6-0.1-8.8,0.2-8.4,2.2c0.5,2.7,7.1,4,13.5,2.6C57.2,6.6,52.5,3.6,45.6,3.2z"/>
	<path class="st0" d="M55.6,60.3c5.6,0,11.7-3.4,14-11c0.1,0,0.2,0,0.3-0.1l2.4-2l0,0l0,0c0-0.1,0-0.1,0-0.1c0.1,0,0.1-0.1,0.1-0.1
		v-0.1v-0.1l0,0v-7.2c0-0.2-0.1-0.3-0.2-0.4c-0.1-0.1-0.3-0.1-0.4-0.1c-0.5,0.1-1,0.1-1.6,0.1c0-0.1,0-0.1,0-0.1
		c-0.2-1.4-0.6-3.9-1.6-6.6v-0.1c-0.1-0.4-0.4-1-0.7-1.6c-2.1-4.7-6.3-9.3-14.2-9.3c-13.6,0-16,10.9-16.4,14.1
		c-0.3,0-0.5,0.1-0.7,0.2c-0.7-0.1-2.3-0.2-2.8,0C33.1,36,33,37.1,32.9,39c0,0.1,0,0.1,0,0.2v0.1c-0.1,0.3-0.1,0.6-0.1,0.9
		c-0.1,1.5,0,5.2,0,5.4c0,0.3,0.1,0.4,0.3,0.5c0.1,0.1,1.6,0.6,2.8,0.6c0.2,0,0.3,0,0.5,0c0.1,0,0.3-0.1,0.4-0.1
		c0.3,2.1,2.5,13.1,17.6,13.6h0.1c0.1,0,0.1,0,0.1,0h0.1C55,60.2,55.3,60.2,55.6,60.3z M33.9,43.3c0.8,0.1,2,0.2,3.1,0.3
		c-0.1,1-0.1,1.7-0.1,1.7c0,0.1,0,0.1,0,0.2l0,0c0,0-0.1,0.1-0.5,0.2c-0.8,0.1-1.9-0.2-2.5-0.4C33.9,44.9,33.8,44.1,33.9,43.3z
		 M33.8,39.8c0.7,0,1.9,0.1,3.2,0.2c0,0.8-0.1,1.8-0.1,2.6c-1.3-0.1-2.6-0.2-3.1-0.3c0.1-0.8,0.1-1.5,0.1-2
		C33.9,40.1,33.9,39.9,33.8,39.8z M37.2,36.6c0,0.4,0,1.3-0.1,2.4c-1.1,0-2.4-0.1-3.1-0.2c0.1-0.8,0.2-1.7,0.3-2
		c0.4-0.1,1.5-0.1,2.5,0C36.9,36.8,37,36.8,37.2,36.6C37.1,36.6,37.2,36.6,37.2,36.6L37.2,36.6z M37.8,43.6c1,0.1,1.8,0.1,1.8,0.1
		l0,0c0.1,0,0.2,0,0.3-0.1c0.5,3.2,1.6,6.1,3.3,8.6c2,2.9,4.2,5.1,6.6,6.4c-4.1-0.9-7.3-2.8-9.5-5.9c-2.3-3.2-2.5-6.5-2.5-6.5
		c0-0.1-0.1-0.2-0.1-0.3c0.1-0.2,0.1-0.5,0.1-0.6C37.8,45,37.9,44.4,37.8,43.6z M38.2,40c0.5,0,1.1,0.1,1.6,0.1c0,0.9,0,1.7,0.1,2.6
		c-0.1,0-0.1,0-0.2,0c-0.5-0.1-1.1-0.1-1.7-0.1C38,41.8,38,40.9,38.2,40z M57.3,22.9c-3.5-0.5-7.2,0.7-11.1,3.4
		c-4.2,2.9-6.2,7.8-6.5,12.8c-0.4,0-0.9,0-1.6-0.1c0.1-1.1,0.1-1.9,0.1-2.3c0.1-0.1,0.1-0.1,0.1-0.2c0-0.6,0.6-14,15.5-14
		C54.7,22.5,56,22.6,57.3,22.9z M70,47.6c0-0.2,0.1-0.4,0.1-0.6l0.6,0.1L70,47.6z M67.5,45.8v-5.7c0.8,0,2.5,0.1,3.9,0v6.1
		L67.5,45.8z M55.6,59.2c-0.4,0-0.7,0-1.1,0c-3.9-0.7-7.3-3.1-10.4-7.6c-4.9-7.1-4.8-19.1,2.8-24.4c4.5-3.2,8.7-4.1,12.6-2.8
		c4.8,1.6,7.6,6.3,8.3,8.3c0,0.1,0,0.1,0.1,0.2c0.6,1.8,1.1,3.9,1.4,6.3c-1.2,0-2.3-0.1-2.3-0.1c-0.9-6.5-6.9-11.4-12.3-11.7
		c-5.9-0.4-9.9,4.4-10.8,12.7c-0.6,5.5,1.4,9,3.2,11c2.1,2.3,5.1,3.8,7.6,3.8h0.1c2.6,0,6.2-0.3,8.9-3c1.4-1.3,2.3-3.1,2.9-5.4
		c0.1,0.2,0.2,0.3,0.4,0.3l2.1,0.2C67.9,53.1,63.3,59.2,55.6,59.2z M54.2,27.9l0.9,0.1c4.7,0.6,9.5,4.9,10.7,10.2
		c0.1,0.1,0.1,0.1,0.1,0.2s0,0.2,0,0.3c0.1,0.7,0.2,1.5,0.2,2.2c0,0.4,0,0.7,0,1.1v0.1c-0.1,0.4-0.1,0.7-0.1,1c0,0.2,0,0.3,0,0.5
		c0,0.4-0.1,0.7-0.1,1c-0.1,0.3-0.1,0.7-0.2,1c0,0.1,0,0.1,0,0.2c-1.8,8.2-8,8.7-11.6,8.7c-0.1,0-0.2,0-0.3,0l0,0
		c0.6-0.1,1.3-0.3,2-0.5c3.7-1.2,7.2-4.5,7.2-13.4c0-4.7-3.1-9.9-7.2-12C55.3,28.3,54.8,28.1,54.2,27.9z"/>
	<path class="st0" d="M14.2,38.3c-0.6-13.7-5.9-7.5-4.8,2s2.7,8.8,2.7,8.8S14.7,47.6,14.2,38.3z"/>
	<path class="st0" d="M22,58.3c-0.1-0.3-0.3-0.4-0.6-0.3s-0.4,0.3-0.3,0.6c0.2,0.6,2.6,5.6,3.5,6c0.1,0,0.1,0,0.2,0
		c0.2,0,0.4-0.1,0.5-0.3s0-0.5-0.3-0.6C24.6,63.4,22.6,59.8,22,58.3z"/>
	<path class="st0" d="M25.2,60c0.1,0.6,1.7,5.5,2.8,6.1c0,0.1,0.1,0.1,0.2,0.1s0.3-0.1,0.4-0.3c0.1-0.3,0-0.6-0.2-0.7
		c-0.4-0.3-1.6-3.1-2.3-5.5c-0.1-0.2-0.3-0.4-0.6-0.3C25.3,59.4,25.1,59.7,25.2,60z"/>
	<path class="st0" d="M32.3,66.6c-0.4-0.8-1.6-3.3-1.8-4c-0.1-0.2-0.3-0.4-0.6-0.3c-0.2,0.1-0.4,0.3-0.3,0.6c0.3,1,1.8,4.1,1.9,4.2
		c0,0.2,0.2,0.3,0.4,0.3c0.1,0,0.1-0.1,0.2-0.1C32.3,67.2,32.4,66.9,32.3,66.6z"/>
	<path class="st0" d="M38.3,93.7c0.9,0.8,1.9,1.3,2.8,1.6h2c0-0.2-0.2-0.4-0.4-0.5c0,0-2.3-0.6-3.8-1.8c-1.6-1.4-5.8-5.9-6.6-8.2
		c-0.1-0.3-0.3-0.4-0.6-0.3s-0.4,0.3-0.3,0.6C32.3,87.6,36.7,92.3,38.3,93.7z"/>
	<path class="st0" d="M40.4,92.5c0.3,0,0.5-0.2,0.5-0.5s-0.2-0.5-0.5-0.5c-0.6-0.2-3.1-3.2-4.5-5.1c-0.2-0.2-0.5-0.3-0.7-0.1
		c-0.2,0.2-0.3,0.5-0.1,0.7C35.2,87.1,39.1,92.5,40.4,92.5L40.4,92.5z"/>
	<path class="st0" d="M63.9,94.8c-0.1,0.1-0.1,0.3-0.1,0.4h1.1c1.5-1.7,3-5.4,3.4-6.6c0.1-0.2,0-0.5-0.3-0.6c-0.2-0.1-0.5,0-0.6,0.3
		C67,89.5,65.4,93.4,63.9,94.8z"/>
	<path class="st0" d="M63.3,92.2c-0.2,0.2-0.3,0.5-0.1,0.7c0.1,0.1,0.3,0.2,0.4,0.2s0.2,0,0.3-0.1c0.6-0.5,0.9-1.2,1.3-2.1
		c0.3-0.7,0.6-1.3,1-1.9c0.2-0.2,0.1-0.5-0.1-0.7s-0.5-0.1-0.7,0.1c-0.4,0.7-0.7,1.4-1,2C64.1,91.2,63.8,91.9,63.3,92.2z"/>
	<path class="st0" d="M30.5,10c0-0.3-0.2-0.5-0.5-0.5c-2.6,0-4.8,3.2-5.6,4.6c-0.1,0.3,0,0.6,0.2,0.7c0.1,0.1,0.2,0.1,0.3,0.1
		s0.3,0,0.4-0.2c0.5-0.9,2.5-4.1,4.7-4.1C30.3,10.6,30.5,10.3,30.5,10z"/>
	<path class="st0" d="M32.3,11.4c-0.1-0.2-0.3-0.4-0.6-0.3c-1.5,0.5-3.6,2.8-3.8,3.1c-0.1,0.2-0.1,0.5,0.1,0.7
		c0.1,0.1,0.2,0.1,0.3,0.1c0.2,0,0.3-0.1,0.4-0.2c0.5-0.7,2.2-2.5,3.3-2.8C32.3,11.9,32.4,11.7,32.3,11.4z"/>
	<path class="st0" d="M43.8,74.2h0.7c0.9,0.1,1.9,0.1,2.8,0.1c0.8,0,1.6,0,2.2-0.1c0.2-0.1,0.4-0.3,0.4-0.6
		c-0.1-0.2-0.3-0.4-0.6-0.4c-1.3,0.2-3.3,0.1-4.8,0h-0.8c-0.2,0-0.5,0.2-0.5,0.5S43.5,74.2,43.8,74.2z"/>
	<path class="st0" d="M36.6,74.1c0,0.3,0.1,0.5,0.4,0.6c1.9,0.4,3.9,0.6,5.4,0.6c0.3,0,0.5,0,0.7,0c0.3,0,0.5-0.2,0.5-0.5
		s-0.2-0.5-0.5-0.5c-1.5,0.1-3.8-0.1-5.8-0.5C37,73.8,36.8,74,36.6,74.1z"/>
	<path class="st0" d="M60,72c0,0.2,0.3,0.4,0.5,0.4h0.1c0.1,0,1.3-0.2,2.9-0.9c0.2-0.2,0.3-0.4,0.2-0.7c-0.2-0.2-0.4-0.3-0.7-0.2
		c-1.5,0.7-2.6,0.9-2.6,0.9C60.1,71.5,59.9,71.8,60,72z"/>
</g>
</svg>
