<?xml version="1.0" encoding="utf-8"?>
<!-- Generator: Adobe Illustrator 25.0.0, SVG Export Plug-In . SVG Version: 6.00 Build 0)  -->
<svg version="1.1" xmlns="http://www.w3.org/2000/svg" xmlns:xlink="http://www.w3.org/1999/xlink" x="0px" y="0px"
	 viewBox="0 0 187.3 169.8" style="enable-background:new 0 0 187.3 169.8;" xml:space="preserve">
<g id="Layer_2">
</g>
<g id="Layer_1">
	<path d="M187.3,7c0-3.9-3.1-7-7-7h-28.4c-3.9,0-7,3.1-7,7s3.1,7,7,7h11.6l-19.8,19.8c-9-7.1-20.4-11.3-32.7-11.3
		c-10.1,0-19.5,2.8-27.5,7.7c-8.6-6.1-19.2-9.7-30.5-9.7c-29.2,0-53,23.8-53,53c0,26.9,20.1,49.1,46,52.5v8.1H29c-3.9,0-7,3.1-7,7
		s3.1,7,7,7h17v14.7c0,3.9,3.1,7,7,7s7-3.1,7-7v-14.7h17c3.9,0,7-3.1,7-7s-3.1-7-7-7H60V126c7.4-1,14.4-3.5,20.5-7.2
		c8.6,6.1,19.2,9.7,30.5,9.7c29.2,0,53-23.8,53-53c0-11.8-3.9-22.8-10.5-31.6L173.3,24V36c0,3.9,3.1,7,7,7s7-3.1,7-7V7.6
		c0-0.1,0-0.2,0-0.3C187.3,7.2,187.3,7.1,187.3,7z M69.7,108.7c-5.1,2.4-10.8,3.8-16.7,3.8c-21.5,0-39-17.5-39-39s17.5-39,39-39
		c6.9,0,13.5,1.8,19.1,5C63.4,49,58,61.6,58,75.5C58,88,62.4,99.6,69.7,108.7z M111,114.5c-6.9,0-13.5-1.8-19.1-5
		c8.8-9.5,14.1-22.1,14.1-36c0-12.6-4.4-24.1-11.7-33.2c5.1-2.4,10.8-3.8,16.7-3.8c21.5,0,39,17.5,39,39S132.5,114.5,111,114.5z"/>
</g>
</svg>
