<?xml version="1.0" encoding="utf-8"?>
<!-- Generator: Adobe Illustrator 25.0.0, SVG Export Plug-In . SVG Version: 6.00 Build 0)  -->
<svg version="1.1" id="Layer_1" xmlns="http://www.w3.org/2000/svg" xmlns:xlink="http://www.w3.org/1999/xlink" x="0px" y="0px"
	 viewBox="0 0 90.2 51" style="enable-background:new 0 0 90.2 51;" xml:space="preserve">
<g>
	<path d="M59.6,34.3c-4.4,0-7.7,1-9.2,2.8c-0.9,1.1-1.3,2.5-1,4.2C50,46,52,51,55.3,51c0.9,0,1.8-0.3,2.8-1
		c5.2-3.5,9.9-10.3,9.9-10.4c0.4-0.5,1.1-1.7,0.6-2.8c-0.5-1.1-2.3-1.9-5.2-2.2C62.1,34.4,60.8,34.3,59.6,34.3z"/>
	<path d="M68.2,10.4c-1.8-2.2-5.1-5.7-9.6-8.8c-7.2-5-16.3,2.9-20.1,4.9c-3.9,2-13.5-0.2-14,6.2c-0.1,1.6-0.3,3-0.6,4.1
		c-1.5,1.1-2.8,2.3-3.8,3.5c-1.3,0.8-3.4,1.8-6.1,2.6c-4.7,1.3-7.5-5.5-11.8-8c-4.3-2.4-1,8.5-1,12.1c0,3.6-3.2,14.6,1,12.1
		c4.3-2.4,7.1-9.3,11.8-8c2.8,0.8,4.9,1.8,6.1,2.6c4.8,6,16,10.5,29.3,11.3c-0.3-1.1-0.6-2.3-0.8-3.5c-1-6.7,6.6-8.5,14.8-7.6
		c8.1,0.9,5.7,5,5,6c0,0-1.3,1.9-3.3,4.3c14.5-2.4,25-9.2,25-17.2C90.2,19.6,81.1,13.2,68.2,10.4z M29.2,27.6
		c-0.3,3.7-1.3,6.9-2.3,9.9c-2.3-1.4-4.2-2.9-5.5-4.6l-0.2-0.2L21,32.5c-0.9-0.5-2.1-1.1-3.6-1.7c-0.4-2.3-0.9-4.6-1.4-6.7
		c2.2-0.7,3.9-1.6,5-2.3l0.2-0.1l0.2-0.2c0.9-1.1,2.1-2.2,3.5-3.2l0.5-0.3l0.1-0.6c0.3-1.2,0.5-2.6,0.6-4
		C28.1,17.8,29.6,22.9,29.2,27.6z M59.6,32.3c-3.6,0-8.3,0.6-10.9,3.6c-1.4,1.6-1.9,3.7-1.5,6c0.1,0.5,0.2,1,0.3,1.6
		c-1.3-0.1-2.7-0.3-3.9-0.5c1.1-15.1-0.6-27.5-2.5-36c0.3-0.2,0.6-0.4,0.9-0.6c2.6-1.7,6.1-3.9,9.5-4.5c0.9,5.8,2.4,13.6,4.1,18.1
		c1.1,3,2.9,7.4,4.5,12.3C59.8,32.3,59.7,32.3,59.6,32.3z M72.9,41c-4.8-12.8-4.1-22.3-2.4-28.3c1.9,0.5,3.7,1.1,5.4,1.8
		c-1,5.8-1.1,14.3,2.7,24.3C76.8,39.5,74.9,40.3,72.9,41z M79.6,25c-1.4,0-2.5-1.1-2.5-2.5c0-1.4,1.1-2.5,2.5-2.5
		c1.4,0,2.5,1.1,2.5,2.5C82.1,23.9,81,25,79.6,25z"/>
</g>
</svg>
