<?xml version="1.0" encoding="utf-8"?>
<!-- Generator: Adobe Illustrator 25.0.0, SVG Export Plug-In . SVG Version: 6.00 Build 0)  -->
<svg version="1.1"
	 id="Layer_1" xmlns:cc="http://creativecommons.org/ns#" xmlns:dc="http://purl.org/dc/elements/1.1/" xmlns:inkscape="http://www.inkscape.org/namespaces/inkscape" xmlns:rdf="http://www.w3.org/1999/02/22-rdf-syntax-ns#" xmlns:sodipodi="http://sodipodi.sourceforge.net/DTD/sodipodi-0.dtd" xmlns:svg="http://www.w3.org/2000/svg"
	 xmlns="http://www.w3.org/2000/svg" xmlns:xlink="http://www.w3.org/1999/xlink" x="0px" y="0px" viewBox="0 0 115 116.7"
	 style="enable-background:new 0 0 115 116.7;" xml:space="preserve">
<path d="M62.6,0c-21,0-38,17-38,38c0,15.4,9.3,28.8,22.6,34.7l4.1,37.7c-2.5-0.3-4.8-1.5-6.4-3.3c-0.6-0.7-1.4-1.1-2.3-1.1
	s-1.7,0.4-2.3,1.1c-1.8,2.2-4.6,3.4-7.6,3.4s-5.8-1.2-7.6-3.4c-0.6-0.7-1.4-1.1-2.3-1.1s-1.7,0.4-2.3,1.1c-1.8,2.2-4.6,3.4-7.6,3.4
	s-5.8-1.2-7.6-3.4c-1.1-1.3-3-1.4-4.2-0.3c-1.3,1.1-1.4,3-0.3,4.2c3,3.5,7.4,5.5,12.2,5.5c3.7,0,7.1-1.2,9.9-3.3
	c2.8,2.2,6.2,3.3,9.9,3.3s7.1-1.2,9.9-3.3c2.8,2.2,6.2,3.3,9.9,3.3c3.6,0,7.1-1.2,9.8-3.3c2.8,2.2,6.3,3.5,10,3.5h0.2
	c3.7,0,7.3-1.3,10.1-3.5c0,0,0.1,0,0.1,0.1c0.1,0.1,0.2,0.1,0.3,0.2c0.3,0.2,0.7,0.5,1,0.7c0.1,0.1,0.3,0.2,0.4,0.3
	c0.3,0.2,0.7,0.4,1,0.5c0.1,0.1,0.3,0.1,0.4,0.2c0.5,0.2,0.9,0.4,1.4,0.6c0.1,0,0.2,0,0.2,0.1c0.4,0.1,0.8,0.2,1.3,0.3
	c0.2,0,0.3,0.1,0.5,0.1c0.4,0.1,0.7,0.1,1.1,0.2c0.2,0,0.3,0,0.5,0.1c0.5,0.1,1.1,0.1,1.6,0.1c3.7,0,7.1-1.2,9.9-3.3
	c2.7,2.1,6,3.3,9.5,3.3h0.1c1.6,0,3-1.3,3-2.9c0-1.7-1.3-3-2.9-3.1c-2.9-0.1-5.5-1.3-7.3-3.4c-0.6-0.7-1.4-1.1-2.3-1.1
	s-1.7,0.4-2.3,1.1c-1.8,2.2-4.6,3.4-7.6,3.4s-5.8-1.2-7.6-3.4c-0.1-0.2-0.3-0.3-0.5-0.4l-0.1-0.1c-0.1-0.1-0.3-0.2-0.4-0.2
	s-0.1,0-0.2-0.1s-0.2-0.1-0.4-0.1h-0.2h-0.4h-0.1h-0.1c-0.6,0-1.1,0.2-1.6,0.5l-0.1,0.1l-0.1,0.1l-0.2,0.2l-0.1,0.1l-0.4,0.4
	c-1.6,1.8-3.7,2.9-6.1,3.2l3.6-37.7c13.5-6.2,23-19.6,23-35.3C100.6,17,83.6,0,62.6,0z M62.6,5.9c17.6,0,32,14.4,32,31.9V38
	c0,17.6-14.4,31.9-32,31.9s-32-14.3-32-31.8v-0.2C30.6,20.3,45,5.9,62.6,5.9z M62.6,9.9c-15.4,0-28,12.6-28,28s12.6,27.9,28,27.9
	s28-12.4,28-27.8C90.6,22.5,78,9.9,62.6,9.9z M62.6,16c12.1,0,22,9.8,22,22v0.1v0.1c0,12.1-9.9,21.9-22,21.9s-22-10-22-22V38
	C40.6,25.9,50.5,16,62.6,16z M62.6,28.7c-0.5,0-1,0.1-1.6,0.1c0.4,0.8,0.7,1.7,0.7,2.6c0,3.1-2.6,5.7-5.7,5.7c-1,0-1.8-0.2-2.6-0.7
	c-0.1,0.5-0.1,1-0.1,1.5c0,5.2,4.2,9.4,9.4,9.4c5.1,0.2,9.3-4,9.3-9.2S67.8,28.7,62.6,28.7z M48.7,73.3
	C48.7,73.3,48.8,73.3,48.7,73.3L48.7,73.3C48.7,73.3,48.7,73.3,48.7,73.3z M54.2,82.2c2.7,0.5,5.5,0.8,8.3,0.8
	c1.3,0,2.5-0.1,3.7-0.2l-1.4,24.6l-0.1-0.1l-0.2-0.2c-0.4-0.7-1.2-1.1-2.1-1.1s-1.7,0.4-2.3,1.1c-0.8,0.9-1.8,1.7-2.9,2.3L54.2,82.2
	z"/>
</svg>
