<?xml version="1.0" encoding="utf-8"?>
<!-- Generator: Adobe Illustrator 25.0.0, SVG Export Plug-In . SVG Version: 6.00 Build 0)  -->
<svg version="1.1" id="Layer_1" xmlns="http://www.w3.org/2000/svg" xmlns:xlink="http://www.w3.org/1999/xlink" x="0px" y="0px"
	 viewBox="0 0 157.6 237.6" style="enable-background:new 0 0 157.6 237.6;" xml:space="preserve">
<style type="text/css">
	.st0{stroke:#000000;stroke-width:4;stroke-miterlimit:10;}
</style>
<g>
	<polygon points="8.9,60.2 20.7,60.4 20.7,73.7 28,73.7 28,22.3 	"/>
	<polygon points="129.6,22.3 129.6,73.7 136.9,73.7 136.9,60.4 148.7,60.2 	"/>
	<g>
		<path class="st0" d="M80.5,53.3"/>
	</g>
	<path d="M153.6,128l-11-18.9c-1.3-2.2-2-4.8-2-7.3V77.5h-14.5v24.3c0,5.1,1.4,10.2,3.9,14.6l11,18.9c2.7,4.6,2.7,10,0,14.6
		c-2.6,4.6-7.4,7.3-12.7,7.3H85.8V59H71.3v98.3H29.2c-5.3,0-10-2.7-12.7-7.3c-2.6-4.6-2.6-10.1,0-14.6l11-18.9
		c2.6-4.4,3.9-9.5,3.9-14.6V77.6H17v24.3c0,2.6-0.7,5.1-2,7.3L4,128.1c-5.3,9.1-5.3,20-0.1,29.1s14.7,14.6,25.2,14.6H75v10.1H51.5
		v7.2H75v14.7h-3.6v33.8h14.5v-33.8h-3.6V189h23.5v-7.2H82.3v-10.1h46.1c10.5,0,20-5.5,25.2-14.6C158.9,148,158.9,137.1,153.6,128z"
		/>
	<polygon points="94.2,30.6 78.7,0 63.2,30.6 75.1,30.9 75.1,53.3 82.3,53.3 82.3,30.9 	"/>
</g>
</svg>
