<?xml version="1.0" encoding="utf-8"?>
<!-- Generator: Adobe Illustrator 25.0.0, SVG Export Plug-In . SVG Version: 6.00 Build 0)  -->
<svg version="1.1" id="Layer_1" xmlns="http://www.w3.org/2000/svg" xmlns:xlink="http://www.w3.org/1999/xlink" x="0px" y="0px"
	 viewBox="0 0 467.7 109.2" style="enable-background:new 0 0 467.7 109.2;" xml:space="preserve">
<g>
	<path d="M436.9,0.5c-14.9,11.2-27.3,20.7-39.8,30c-3.8,2.9-6.1,2.2-9.1-2c-5.9-8.3-34.3-11-41.5-4.6c-3.8,3.3-3.7,7.5-2.5,11.8
		c1.4,4.8,3.9,9.3,9.4,9.4c16.7,0.3,33.3,0.2,50,0.2c6.7,0,8.1-10.5,17.1-7.4c15.5,5.4,31.4,9.5,47.2,16
		c-17.7,6.5-36.4,20-52.5,14.7c-19.2-6.3-37.2-2.9-55.6-5.2c-2.3-0.3-4.8,0-7.1,0.5c-7,1.4-8.7,6.9-9,12.8c-0.4,5.9,3.3,8.6,8.7,9.4
		c13.3,1.8,27.3,7.3,37.3-7.7c2.4-3.7,6-2.4,8.8-0.3c12,9.1,23.8,18.4,39,30.2c-25.4,2.8-46.4-1.8-67.3-2.8
		c-13.2-0.6-26.6-2.1-39.4-6.4c-9.7-3.3-14.9-7-8.6-18.5c8.2-15,6.3-17.2-11.6-17.2c-96.7,0-193.5,0.1-290.2-0.3
		c-7.4,0-20.1,4.8-20.2-8.5C-0.2,40.9,12.7,46,20,46c96.3-0.4,192.5-0.2,288.8-0.3c21.1,0,21.6-0.3,12.6-19.1
		c-5.2-10.7-0.6-14.9,8.6-17.7c18.4-5.6,37.5-6.4,56.4-8.2C401.7-0.7,417.4,0.5,436.9,0.5z"/>
</g>
</svg>
