<?xml version="1.0" encoding="utf-8"?>
<!-- Generator: Adobe Illustrator 25.0.0, SVG Export Plug-In . SVG Version: 6.00 Build 0)  -->
<svg version="1.1" id="Layer_1" xmlns="http://www.w3.org/2000/svg" xmlns:xlink="http://www.w3.org/1999/xlink" x="0px" y="0px"
	 viewBox="0 0 79 89.2" style="enable-background:new 0 0 79 89.2;" xml:space="preserve">
<path d="M38.4,2.7c-3.2,8.6-6.5,14.8-10,18.6c-1.5,1.6-1.5,1.5,0.6,1.1c1-0.2,2.7-0.5,3.8-0.6l1.9-0.1v17.2v17.2l-0.4,0.1
	c-0.2,0.1-2.4,0.4-4.9,0.7c-3.9,0.6-4.4,0.6-4.6,0.4c-0.1-0.1-0.3-1-0.3-1.9c-0.2-2.4-1-7.6-1.6-10.7c-1.5-7.1-4.2-16.6-5.7-19.6
	c-1.1-2.1-1.2-3-0.7-3.1c0.2,0,1.2,0.2,2.2,0.5c1,0.3,1.9,0.6,1.9,0.5c0.1-0.1-0.4-0.6-1-1.1C14.9,17.5,8.5,14.2,2,12.8
	c-1.8-0.4-2-0.4-2,0c0,0.1,0.9,1.8,2.1,3.6c8.7,14,13.7,27.2,15.4,40.7c0.2,1.9,0.6,7.7,0.6,9.4v0.5l1.6-0.1
	c0.9-0.1,3.9-0.5,6.6-0.9c2.8-0.5,5.6-0.9,6.3-0.9c0.7-0.1,1.5-0.1,1.7-0.2l0.4-0.1V77v12.2h4.8h4.8V77V64.9L46,65
	c0.9,0.1,3.9,0.5,6.6,1c5.2,0.9,8.1,1.2,8.2,1c0.1-0.1,0.2-1.8,0.3-3.8c0.5-9.9,2.4-18.4,6.3-28.1c2.5-6.4,5.5-12.1,9.9-19.3
	c0.9-1.5,1.7-2.8,1.7-3c0-0.4-0.2-0.4-2.3,0.1c-5,1-11.2,3.9-15.2,7.1c-1.5,1.2-3.2,2.9-3.1,3c0.1,0.1,0.9-0.2,1.9-0.5
	c3-1,3.1-0.7,1.6,2.4c-0.7,1.5-1.4,3.3-2.2,6.1c-2.8,9.4-4.4,16.7-5.1,23.7c-0.1,1.3-0.3,2.5-0.4,2.6c-0.2,0.2-0.8,0.2-4.6-0.4
	c-2.4-0.4-4.6-0.7-4.9-0.8l-0.5-0.1l0.1-17.2l0-17.2h1.2c1.2,0,3.9,0.4,5.4,0.8c0.9,0.2,0.9,0.2,0.8,0c-0.1-0.2-0.4-0.5-0.6-0.8
	c-0.8-0.8-2.8-3.3-4-5.4c-2.1-3.3-5-9.8-7.1-15.5c-0.2-0.5-0.4-1-0.4-1C39.4,0,39,1.2,38.4,2.7z"/>
</svg>
