<?xml version="1.0" encoding="utf-8"?>
<!-- Generator: Adobe Illustrator 25.2.1, SVG Export Plug-In . SVG Version: 6.00 Build 0)  -->
<svg version="1.1" id="Layer_1" xmlns="http://www.w3.org/2000/svg" xmlns:xlink="http://www.w3.org/1999/xlink" x="0px" y="0px"
	 viewBox="0 0 85.4 79.7" style="enable-background:new 0 0 85.4 79.7;" xml:space="preserve">
<path d="M79.8,35.3c-1.9,0-3.4,1.1-4.1,2.7H69c-0.3-3.4-1.7-6.1-2.2-7c0.1-1.1,0-2.1-0.3-3.1c0-0.1,0-0.1-0.1-0.2h3.3l3.1-2.3
	c0.7,0.5,1.6,0.8,2.5,0.8c2.5,0,4.5-2,4.5-4.5s-2-4.5-4.5-4.5s-4.5,2-4.5,4.5c0,0.5,0.1,0.9,0.2,1.3l-2.3,1.8h-4
	c-1.6-2-3.7-3.2-4.9-3.8c-0.2-1.8-0.9-3.5-2-4.9L66.5,6h10.2c0.6,1.7,2.3,3,4.2,3c2.5,0,4.5-2,4.5-4.5S83.4,0,80.9,0
	c-1.9,0-3.6,1.3-4.2,3H65.2l-9.6,11.1c-1.4-0.9-3.1-1.5-5-1.5c-3.4,0-6.4,1.9-8,4.6c-1.6-2.6-4.5-4.3-7.8-4.3
	c-1.8,0-3.4,0.5-4.8,1.4L20.2,3.1H8.7c-0.6-1.7-2.3-3-4.2-3C2,0.1,0,2.1,0,4.6s2,4.5,4.5,4.5c1.9,0,3.6-1.3,4.2-3h10.2l8.8,10.1
	c-1.2,1.4-2,3.1-2.1,5.1c-1.1,0.5-3,1.7-4.6,3.5h-4.3l-2.3-1.7c0.1-0.4,0.2-0.8,0.2-1.3c0-2.5-2-4.5-4.5-4.5s-4.5,2-4.5,4.5
	s2,4.5,4.5,4.5c0.9,0,1.8-0.3,2.5-0.8l3.1,2.3h3.4C19,28,19,28.1,18.9,28.3c-0.3,1-0.4,2.1-0.3,3.1c-0.5,0.9-1.8,3.4-2.2,6.7H9.7
	c-0.7-1.6-2.3-2.7-4.1-2.7c-2.5,0-4.5,2-4.5,4.5s2,4.5,4.5,4.5c2,0,3.8-1.4,4.3-3.3h6.5c0.2,1.8,0.9,3.8,2.3,5.8
	c-0.5,1.2-0.8,2.6-0.8,4.4c0,0.1,0,0.1,0,0.2h-5.2l-3.1,2.3C8.9,53.3,8,53,7.1,53c-2.5,0-4.5,2-4.5,4.5s2,4.5,4.5,4.5s4.5-2,4.5-4.5
	c0-0.5-0.1-0.9-0.2-1.3l2.3-1.7h4.6c0.4,1.3,1.1,2.4,2.1,3.3c1.8,1.7,4.1,2.1,5.4,2.2c0.4,1.6,1.2,3.1,2.3,4.3l-8.2,9.4H12
	c-0.6-1.7-2.3-3-4.2-3c-2.5,0-4.5,2-4.5,4.5s2,4.5,4.5,4.5c1.9,0,3.6-1.3,4.2-3h9.3l9.2-10.6c1.3,0.7,2.7,1,4.2,1c0.3,0,0.7,0,1-0.1
	c2.5-0.3,4.7-1.5,6.2-3.4c0.3-0.4,0.6-0.8,0.8-1.2c0.2,0.3,0.4,0.6,0.6,0.9c1.6,1.9,3.8,3.1,6.2,3.4c0.3,0,0.7,0.1,1,0.1
	c1.4,0,2.8-0.3,4-0.9l9.4,10.8h9.3c0.6,1.7,2.3,3,4.2,3c2.5,0,4.5-2,4.5-4.5s-2-4.5-4.5-4.5c-1.9,0-3.6,1.3-4.2,3h-7.9L57,64.1
	c1.2-1.2,2.1-2.7,2.5-4.4c1.4-0.1,3.7-0.6,5.4-2.2c0.9-0.8,1.5-1.8,2-3h4.8l2.3,1.7c-0.1,0.4-0.2,0.8-0.2,1.3c0,2.5,2,4.5,4.5,4.5
	s4.5-2,4.5-4.5s-2-4.5-4.5-4.5c-0.9,0-1.8,0.3-2.5,0.8l-3.1-2.3h-5.2c0-0.2,0-0.3,0-0.5c0-1.8-0.3-3.3-0.8-4.4
	c1.3-1.8,1.9-3.7,2.2-5.6h6.6c0.5,1.9,2.2,3.3,4.3,3.3c2.5,0,4.5-2,4.5-4.5S82.3,35.3,79.8,35.3z M39.9,62c-1.1,1.4-2.7,2.2-4.4,2.4
	s-3.4-0.3-4.8-1.4c-1.4-1.1-2.2-2.7-2.4-4.4c-0.2-1.7,0.3-3.4,1.4-4.8c0.9-1.1,2.1-1.9,3.5-2.2c1.5,3.3,4.3,4.9,4.3,4.9
	c0.2,0.1,0.4,0.2,0.7,0.2c0.5,0,0.9-0.2,1.2-0.7c0.4-0.6,0.1-1.5-0.5-1.8c-0.3-0.2-6.4-3.8-2.7-11.5c0.3-0.7,0-1.5-0.6-1.8
	c-0.7-0.3-1.5,0-1.8,0.6c-1.4,2.9-1.7,5.5-1.3,7.5c-1.9,0.5-3.6,1.6-4.8,3.1s-1.9,3.3-2,5.2c-1-0.1-2.3-0.5-3.4-1.5
	c-1.1-1-1.6-2.6-1.6-4.6c0-2.6,0.8-4.5,2.3-5.6c1.3-1,2.8-1,3.2-0.9c0.5,0.4,1.3,0.3,1.7-0.2c0.5-0.5,0.5-1.4,0-1.9
	c-1-1-3.3-0.8-4.9-0.1c-0.8,0.3-1.7,0.9-2.6,1.8c-1.8-3.3-1.3-6.8-0.5-9.1c0.2,0.4,0.4,0.8,0.7,1.1c-0.3,1.1-0.4,2.2-0.2,3.4v0.1
	c0,0.6,0.4,1.1,1,1.3c0.1,0,0.2,0,0.3,0c0.6,0,1.2-0.4,1.3-1c0.1-0.3,0-0.6,0-0.8c-0.2-0.9-0.7-3.8,4.8-6.2c0.7-0.3,1-1.1,0.7-1.8
	s-1.1-1-1.8-0.7c-2,0.9-3.6,2-4.7,3.2c-0.8-1.7-1-3.2-0.5-4.7c0.1-0.5,0.3-0.9,0.6-1.3h0.2v-0.4c0.9-1.4,2.3-2.4,3.4-3.1
	c0.9,3.8,4.2,6.8,8.2,7.1c0.3,1.1,0.8,2.3,1.7,3.3c0.3,0.3,0.6,0.4,1,0.4c0.3,0,0.7-0.1,0.9-0.4c0.5-0.5,0.6-1.4,0-1.9
	c-2.1-2.2-0.8-6.4-0.7-6.5c0.2-0.7-0.1-1.5-0.8-1.7s-1.5,0.1-1.7,0.8c0,0.1-0.5,1.5-0.6,3.2c-3.1-0.5-5.5-3.2-5.5-6.5
	c0-3.6,2.9-6.5,6.5-6.5c3.5,0,6.4,2.8,6.5,6.3c0,0.1,0,0.2,0,0.3v34.9v0.1C41.5,59,41,60.7,39.9,62z M62.5,42.4
	c-1.7-0.7-4-0.9-4.9,0.1c-0.5,0.5-0.5,1.4,0,1.9s1.2,0.5,1.7,0.2c0.4-0.1,1.8,0,3.2,0.9c1.5,1.1,2.3,3,2.3,5.6c0,2-0.6,3.5-1.6,4.6
	c-1,1-2.4,1.3-3.4,1.5c-0.1-1.9-0.8-3.7-2-5.2c-1.2-1.5-2.9-2.6-4.8-3.1c0.3-2.1,0.1-4.6-1.3-7.5c-0.3-0.7-1.1-1-1.8-0.6
	c-0.7,0.3-1,1.1-0.6,1.8c3.7,7.7-2.4,11.4-2.7,11.5c-0.6,0.4-0.9,1.2-0.5,1.8c0.3,0.4,0.7,0.7,1.2,0.7c0.2,0,0.5-0.1,0.7-0.2
	c0,0,2.8-1.7,4.3-4.9c1.4,0.3,2.6,1.1,3.5,2.2c1.1,1.4,1.6,3.1,1.4,4.8c-0.2,1.7-1,3.3-2.4,4.4c-1.4,1.1-3.1,1.6-4.8,1.4
	s-3.3-1-4.4-2.4c-1.1-1.4-1.6-3.1-1.4-4.8v-35c0-0.1,0-0.2,0-0.3c0.1-3.5,3-6.3,6.5-6.3c3.6,0,6.5,2.9,6.5,6.5c0,3.3-2.4,6-5.5,6.5
	c-0.1-1.7-0.5-3.1-0.6-3.2c-0.2-0.7-1-1.1-1.7-0.8c-0.7,0.2-1.1,1-0.8,1.7c0,0,1.4,4.2-0.7,6.4c-0.5,0.5-0.5,1.4,0,1.9
	c0.3,0.3,0.6,0.4,0.9,0.4c0.4,0,0.7-0.1,1-0.4c0.9-1,1.5-2.1,1.7-3.3c4-0.3,7.3-3.3,8.2-7.1c1.1,0.7,2.5,1.7,3.4,3.1v0.7h0.4
	c0.2,0.3,0.3,0.6,0.4,1c0.4,1.4,0.3,3-0.5,4.7c-1.1-1.2-2.7-2.3-4.7-3.2c-0.7-0.3-1.5,0-1.8,0.7c-0.3,0.7,0,1.5,0.7,1.8
	c5.6,2.4,5,5.3,4.8,6.2c0,0.2-0.1,0.5,0,0.8c0.2,0.6,0.7,1,1.3,1c0.1,0,0.2,0,0.3,0c0.6-0.1,1-0.7,1-1.3v-0.1
	c0.2-1.2,0.2-2.3-0.2-3.4c0.2-0.4,0.5-0.7,0.6-1.1c0.8,2.4,1.4,5.9-0.4,9.1C64.2,43.2,63.3,42.7,62.5,42.4z"/>
</svg>
